# xmcd
# Track frame offsets:
# 150
# 14173
# 28033
# 41913
# 57103
# 74118
# 85755
# 98623
# 110623
# 125920
# 141380
#
# Disc length: 2077 seconds
# Revision: 0
# Processed by: cddbd v1.4PL0 Copyright (c) Steve Scherf et al.
# Submitted via: VisiTrax 2.9.5.180 - For more info visit www.synapsa.com
#
DISCID=a7081b0b
DTITLE=Charlie Louvin - 50 years of makin' music
DYEAR=1992
DGENRE=
TTITLE0=Charlie Louvin/Willie Nelson/Waylon Jennings - Makin' music
TTITLE1=Charlie Louvin/Crystal Gayle - Just beyond the pain
TTITLE2=Charlie Louvin - Memories burnin'
TTITLE3=Charlie Louvin/Willie Nelson - This darn pen
TTITLE4=Charlie Louvin - Old dreams
TTITLE5=Charlie Louvin/Charlie daniels - Are there any lonely women here tonig
TTITLE5=ht
TTITLE6=Charlie Louvin - Ain't you even gonna cry
TTITLE7=Charlie Louvin/Tanya Tucker - Back in harmony
TTITLE8=Charlie Louvin/Waylon Jennings/George Jones - Country boy's dream
TTITLE9=Charlie Louvin/Melba Montgomery - Takes love to know love
TTITLE10=Charlie Louvin - Precious time
EXTD=
EXTT0=
EXTT1=
EXTT2=
EXTT3=
EXTT4=
EXTT5=
EXTT6=
EXTT7=
EXTT8=
EXTT9=
EXTT10=
PLAYORDER=
